<?xml version="1.0" encoding="utf-8" standalone="no"?>
<!DOCTYPE svg PUBLIC "-//W3C//DTD SVG 1.1//EN"
  "http://www.w3.org/Graphics/SVG/1.1/DTD/svg11.dtd">
<!-- Created with matplotlib (https://matplotlib.org/) -->
<svg height="554.83pt" version="1.1" viewBox="0 0 812.2075 554.83" width="812.2075pt" xmlns="http://www.w3.org/2000/svg" xmlns:xlink="http://www.w3.org/1999/xlink">
 <metadata>
  <rdf:RDF xmlns:cc="http://creativecommons.org/ns#" xmlns:dc="http://purl.org/dc/elements/1.1/" xmlns:rdf="http://www.w3.org/1999/02/22-rdf-syntax-ns#">
   <cc:Work>
    <dc:type rdf:resource="http://purl.org/dc/dcmitype/StillImage"/>
    <dc:date>2021-03-08T13:12:26.515439</dc:date>
    <dc:format>image/svg+xml</dc:format>
    <dc:creator>
     <cc:Agent>
      <dc:title>Matplotlib v3.3.2, https://matplotlib.org/</dc:title>
     </cc:Agent>
    </dc:creator>
   </cc:Work>
  </rdf:RDF>
 </metadata>
 <defs>
  <style type="text/css">*{stroke-linecap:butt;stroke-linejoin:round;}</style>
 </defs>
 <g id="figure_1">
  <g id="patch_1">
   <path d="M 0 554.83 
L 812.2075 554.83 
L 812.2075 0 
L 0 0 
z
" style="fill:#ffffff;"/>
  </g>
  <g id="axes_1">
   <g id="patch_2">
    <path d="M 58.0075 506.16 
L 727.6075 506.16 
L 727.6075 7.2 
L 58.0075 7.2 
z
" style="fill:#ffffff;"/>
   </g>
   <g id="matplotlib.axis_1">
    <g id="xtick_1">
     <g id="line2d_1">
      <path clip-path="url(#p3cc2f3ae2c)" d="M 181.750103 506.16 
L 181.750103 7.2 
" style="fill:none;stroke:#cccccc;stroke-linecap:square;stroke-opacity:0.7;stroke-width:0.8;"/>
     </g>
     <g id="line2d_2">
      <defs>
       <path d="M 0 0 
L 0 3 
" id="me1745bfeef" style="stroke:#000000;stroke-width:1.4;"/>
      </defs>
      <g>
       <use style="stroke:#000000;stroke-width:1.4;" x="181.750103" xlink:href="#me1745bfeef" y="506.16"/>
      </g>
     </g>
     <g id="text_1">
      <!-- $\mathdefault{2^{10}}$ -->
      <g transform="translate(169.975103 524.057656)scale(0.15 -0.15)">
       <defs>
        <path d="M 19.1875 8.296875 
L 53.609375 8.296875 
L 53.609375 0 
L 7.328125 0 
L 7.328125 8.296875 
Q 12.9375 14.109375 22.625 23.890625 
Q 32.328125 33.6875 34.8125 36.53125 
Q 39.546875 41.84375 41.421875 45.53125 
Q 43.3125 49.21875 43.3125 52.78125 
Q 43.3125 58.59375 39.234375 62.25 
Q 35.15625 65.921875 28.609375 65.921875 
Q 23.96875 65.921875 18.8125 64.3125 
Q 13.671875 62.703125 7.8125 59.421875 
L 7.8125 69.390625 
Q 13.765625 71.78125 18.9375 73 
Q 24.125 74.21875 28.421875 74.21875 
Q 39.75 74.21875 46.484375 68.546875 
Q 53.21875 62.890625 53.21875 53.421875 
Q 53.21875 48.921875 51.53125 44.890625 
Q 49.859375 40.875 45.40625 35.40625 
Q 44.1875 33.984375 37.640625 27.21875 
Q 31.109375 20.453125 19.1875 8.296875 
z
" id="DejaVuSans-50"/>
        <path d="M 12.40625 8.296875 
L 28.515625 8.296875 
L 28.515625 63.921875 
L 10.984375 60.40625 
L 10.984375 69.390625 
L 28.421875 72.90625 
L 38.28125 72.90625 
L 38.28125 8.296875 
L 54.390625 8.296875 
L 54.390625 0 
L 12.40625 0 
z
" id="DejaVuSans-49"/>
        <path d="M 31.78125 66.40625 
Q 24.171875 66.40625 20.328125 58.90625 
Q 16.5 51.421875 16.5 36.375 
Q 16.5 21.390625 20.328125 13.890625 
Q 24.171875 6.390625 31.78125 6.390625 
Q 39.453125 6.390625 43.28125 13.890625 
Q 47.125 21.390625 47.125 36.375 
Q 47.125 51.421875 43.28125 58.90625 
Q 39.453125 66.40625 31.78125 66.40625 
z
M 31.78125 74.21875 
Q 44.046875 74.21875 50.515625 64.515625 
Q 56.984375 54.828125 56.984375 36.375 
Q 56.984375 17.96875 50.515625 8.265625 
Q 44.046875 -1.421875 31.78125 -1.421875 
Q 19.53125 -1.421875 13.0625 8.265625 
Q 6.59375 17.96875 6.59375 36.375 
Q 6.59375 54.828125 13.0625 64.515625 
Q 19.53125 74.21875 31.78125 74.21875 
z
" id="DejaVuSans-48"/>
       </defs>
       <use transform="translate(0 0.765625)" xlink:href="#DejaVuSans-50"/>
       <use transform="translate(64.580078 39.046875)scale(0.7)" xlink:href="#DejaVuSans-49"/>
       <use transform="translate(109.116211 39.046875)scale(0.7)" xlink:href="#DejaVuSans-48"/>
      </g>
     </g>
    </g>
    <g id="xtick_2">
     <g id="line2d_3">
      <path clip-path="url(#p3cc2f3ae2c)" d="M 327.883284 506.16 
L 327.883284 7.2 
" style="fill:none;stroke:#cccccc;stroke-linecap:square;stroke-opacity:0.7;stroke-width:0.8;"/>
     </g>
     <g id="line2d_4">
      <g>
       <use style="stroke:#000000;stroke-width:1.4;" x="327.883284" xlink:href="#me1745bfeef" y="506.16"/>
      </g>
     </g>
     <g id="text_2">
      <!-- $\mathdefault{2^{12}}$ -->
      <g transform="translate(316.108284 524.057656)scale(0.15 -0.15)">
       <use transform="translate(0 0.765625)" xlink:href="#DejaVuSans-50"/>
       <use transform="translate(64.580078 39.046875)scale(0.7)" xlink:href="#DejaVuSans-49"/>
       <use transform="translate(109.116211 39.046875)scale(0.7)" xlink:href="#DejaVuSans-50"/>
      </g>
     </g>
    </g>
    <g id="xtick_3">
     <g id="line2d_5">
      <path clip-path="url(#p3cc2f3ae2c)" d="M 474.016465 506.16 
L 474.016465 7.2 
" style="fill:none;stroke:#cccccc;stroke-linecap:square;stroke-opacity:0.7;stroke-width:0.8;"/>
     </g>
     <g id="line2d_6">
      <g>
       <use style="stroke:#000000;stroke-width:1.4;" x="474.016465" xlink:href="#me1745bfeef" y="506.16"/>
      </g>
     </g>
     <g id="text_3">
      <!-- $\mathdefault{2^{14}}$ -->
      <g transform="translate(462.241465 524.057656)scale(0.15 -0.15)">
       <defs>
        <path d="M 37.796875 64.3125 
L 12.890625 25.390625 
L 37.796875 25.390625 
z
M 35.203125 72.90625 
L 47.609375 72.90625 
L 47.609375 25.390625 
L 58.015625 25.390625 
L 58.015625 17.1875 
L 47.609375 17.1875 
L 47.609375 0 
L 37.796875 0 
L 37.796875 17.1875 
L 4.890625 17.1875 
L 4.890625 26.703125 
z
" id="DejaVuSans-52"/>
       </defs>
       <use transform="translate(0 0.684375)" xlink:href="#DejaVuSans-50"/>
       <use transform="translate(64.580078 38.965625)scale(0.7)" xlink:href="#DejaVuSans-49"/>
       <use transform="translate(109.116211 38.965625)scale(0.7)" xlink:href="#DejaVuSans-52"/>
      </g>
     </g>
    </g>
    <g id="xtick_4">
     <g id="line2d_7">
      <path clip-path="url(#p3cc2f3ae2c)" d="M 620.149647 506.16 
L 620.149647 7.2 
" style="fill:none;stroke:#cccccc;stroke-linecap:square;stroke-opacity:0.7;stroke-width:0.8;"/>
     </g>
     <g id="line2d_8">
      <g>
       <use style="stroke:#000000;stroke-width:1.4;" x="620.149647" xlink:href="#me1745bfeef" y="506.16"/>
      </g>
     </g>
     <g id="text_4">
      <!-- $\mathdefault{2^{16}}$ -->
      <g transform="translate(608.374647 524.057656)scale(0.15 -0.15)">
       <defs>
        <path d="M 33.015625 40.375 
Q 26.375 40.375 22.484375 35.828125 
Q 18.609375 31.296875 18.609375 23.390625 
Q 18.609375 15.53125 22.484375 10.953125 
Q 26.375 6.390625 33.015625 6.390625 
Q 39.65625 6.390625 43.53125 10.953125 
Q 47.40625 15.53125 47.40625 23.390625 
Q 47.40625 31.296875 43.53125 35.828125 
Q 39.65625 40.375 33.015625 40.375 
z
M 52.59375 71.296875 
L 52.59375 62.3125 
Q 48.875 64.0625 45.09375 64.984375 
Q 41.3125 65.921875 37.59375 65.921875 
Q 27.828125 65.921875 22.671875 59.328125 
Q 17.53125 52.734375 16.796875 39.40625 
Q 19.671875 43.65625 24.015625 45.921875 
Q 28.375 48.1875 33.59375 48.1875 
Q 44.578125 48.1875 50.953125 41.515625 
Q 57.328125 34.859375 57.328125 23.390625 
Q 57.328125 12.15625 50.6875 5.359375 
Q 44.046875 -1.421875 33.015625 -1.421875 
Q 20.359375 -1.421875 13.671875 8.265625 
Q 6.984375 17.96875 6.984375 36.375 
Q 6.984375 53.65625 15.1875 63.9375 
Q 23.390625 74.21875 37.203125 74.21875 
Q 40.921875 74.21875 44.703125 73.484375 
Q 48.484375 72.75 52.59375 71.296875 
z
" id="DejaVuSans-54"/>
       </defs>
       <use transform="translate(0 0.765625)" xlink:href="#DejaVuSans-50"/>
       <use transform="translate(64.580078 39.046875)scale(0.7)" xlink:href="#DejaVuSans-49"/>
       <use transform="translate(109.116211 39.046875)scale(0.7)" xlink:href="#DejaVuSans-54"/>
      </g>
     </g>
    </g>
    <g id="text_5">
     <!-- number of annotated tokens -->
     <g transform="translate(271.460703 544.094531)scale(0.17 -0.17)">
      <defs>
       <path d="M 54.890625 33.015625 
L 54.890625 0 
L 45.90625 0 
L 45.90625 32.71875 
Q 45.90625 40.484375 42.875 44.328125 
Q 39.84375 48.1875 33.796875 48.1875 
Q 26.515625 48.1875 22.3125 43.546875 
Q 18.109375 38.921875 18.109375 30.90625 
L 18.109375 0 
L 9.078125 0 
L 9.078125 54.6875 
L 18.109375 54.6875 
L 18.109375 46.1875 
Q 21.34375 51.125 25.703125 53.5625 
Q 30.078125 56 35.796875 56 
Q 45.21875 56 50.046875 50.171875 
Q 54.890625 44.34375 54.890625 33.015625 
z
" id="DejaVuSans-110"/>
       <path d="M 8.5 21.578125 
L 8.5 54.6875 
L 17.484375 54.6875 
L 17.484375 21.921875 
Q 17.484375 14.15625 20.5 10.265625 
Q 23.53125 6.390625 29.59375 6.390625 
Q 36.859375 6.390625 41.078125 11.03125 
Q 45.3125 15.671875 45.3125 23.6875 
L 45.3125 54.6875 
L 54.296875 54.6875 
L 54.296875 0 
L 45.3125 0 
L 45.3125 8.40625 
Q 42.046875 3.421875 37.71875 1 
Q 33.40625 -1.421875 27.6875 -1.421875 
Q 18.265625 -1.421875 13.375 4.4375 
Q 8.5 10.296875 8.5 21.578125 
z
M 31.109375 56 
z
" id="DejaVuSans-117"/>
       <path d="M 52 44.1875 
Q 55.375 50.25 60.0625 53.125 
Q 64.75 56 71.09375 56 
Q 79.640625 56 84.28125 50.015625 
Q 88.921875 44.046875 88.921875 33.015625 
L 88.921875 0 
L 79.890625 0 
L 79.890625 32.71875 
Q 79.890625 40.578125 77.09375 44.375 
Q 74.3125 48.1875 68.609375 48.1875 
Q 61.625 48.1875 57.5625 43.546875 
Q 53.515625 38.921875 53.515625 30.90625 
L 53.515625 0 
L 44.484375 0 
L 44.484375 32.71875 
Q 44.484375 40.625 41.703125 44.40625 
Q 38.921875 48.1875 33.109375 48.1875 
Q 26.21875 48.1875 22.15625 43.53125 
Q 18.109375 38.875 18.109375 30.90625 
L 18.109375 0 
L 9.078125 0 
L 9.078125 54.6875 
L 18.109375 54.6875 
L 18.109375 46.1875 
Q 21.1875 51.21875 25.484375 53.609375 
Q 29.78125 56 35.6875 56 
Q 41.65625 56 45.828125 52.96875 
Q 50 49.953125 52 44.1875 
z
" id="DejaVuSans-109"/>
       <path d="M 48.6875 27.296875 
Q 48.6875 37.203125 44.609375 42.84375 
Q 40.53125 48.484375 33.40625 48.484375 
Q 26.265625 48.484375 22.1875 42.84375 
Q 18.109375 37.203125 18.109375 27.296875 
Q 18.109375 17.390625 22.1875 11.75 
Q 26.265625 6.109375 33.40625 6.109375 
Q 40.53125 6.109375 44.609375 11.75 
Q 48.6875 17.390625 48.6875 27.296875 
z
M 18.109375 46.390625 
Q 20.953125 51.265625 25.265625 53.625 
Q 29.59375 56 35.59375 56 
Q 45.5625 56 51.78125 48.09375 
Q 58.015625 40.1875 58.015625 27.296875 
Q 58.015625 14.40625 51.78125 6.484375 
Q 45.5625 -1.421875 35.59375 -1.421875 
Q 29.59375 -1.421875 25.265625 0.953125 
Q 20.953125 3.328125 18.109375 8.203125 
L 18.109375 0 
L 9.078125 0 
L 9.078125 75.984375 
L 18.109375 75.984375 
z
" id="DejaVuSans-98"/>
       <path d="M 56.203125 29.59375 
L 56.203125 25.203125 
L 14.890625 25.203125 
Q 15.484375 15.921875 20.484375 11.0625 
Q 25.484375 6.203125 34.421875 6.203125 
Q 39.59375 6.203125 44.453125 7.46875 
Q 49.3125 8.734375 54.109375 11.28125 
L 54.109375 2.78125 
Q 49.265625 0.734375 44.1875 -0.34375 
Q 39.109375 -1.421875 33.890625 -1.421875 
Q 20.796875 -1.421875 13.15625 6.1875 
Q 5.515625 13.8125 5.515625 26.8125 
Q 5.515625 40.234375 12.765625 48.109375 
Q 20.015625 56 32.328125 56 
Q 43.359375 56 49.78125 48.890625 
Q 56.203125 41.796875 56.203125 29.59375 
z
M 47.21875 32.234375 
Q 47.125 39.59375 43.09375 43.984375 
Q 39.0625 48.390625 32.421875 48.390625 
Q 24.90625 48.390625 20.390625 44.140625 
Q 15.875 39.890625 15.1875 32.171875 
z
" id="DejaVuSans-101"/>
       <path d="M 41.109375 46.296875 
Q 39.59375 47.171875 37.8125 47.578125 
Q 36.03125 48 33.890625 48 
Q 26.265625 48 22.1875 43.046875 
Q 18.109375 38.09375 18.109375 28.8125 
L 18.109375 0 
L 9.078125 0 
L 9.078125 54.6875 
L 18.109375 54.6875 
L 18.109375 46.1875 
Q 20.953125 51.171875 25.484375 53.578125 
Q 30.03125 56 36.53125 56 
Q 37.453125 56 38.578125 55.875 
Q 39.703125 55.765625 41.0625 55.515625 
z
" id="DejaVuSans-114"/>
       <path id="DejaVuSans-32"/>
       <path d="M 30.609375 48.390625 
Q 23.390625 48.390625 19.1875 42.75 
Q 14.984375 37.109375 14.984375 27.296875 
Q 14.984375 17.484375 19.15625 11.84375 
Q 23.34375 6.203125 30.609375 6.203125 
Q 37.796875 6.203125 41.984375 11.859375 
Q 46.1875 17.53125 46.1875 27.296875 
Q 46.1875 37.015625 41.984375 42.703125 
Q 37.796875 48.390625 30.609375 48.390625 
z
M 30.609375 56 
Q 42.328125 56 49.015625 48.375 
Q 55.71875 40.765625 55.71875 27.296875 
Q 55.71875 13.875 49.015625 6.21875 
Q 42.328125 -1.421875 30.609375 -1.421875 
Q 18.84375 -1.421875 12.171875 6.21875 
Q 5.515625 13.875 5.515625 27.296875 
Q 5.515625 40.765625 12.171875 48.375 
Q 18.84375 56 30.609375 56 
z
" id="DejaVuSans-111"/>
       <path d="M 37.109375 75.984375 
L 37.109375 68.5 
L 28.515625 68.5 
Q 23.6875 68.5 21.796875 66.546875 
Q 19.921875 64.59375 19.921875 59.515625 
L 19.921875 54.6875 
L 34.71875 54.6875 
L 34.71875 47.703125 
L 19.921875 47.703125 
L 19.921875 0 
L 10.890625 0 
L 10.890625 47.703125 
L 2.296875 47.703125 
L 2.296875 54.6875 
L 10.890625 54.6875 
L 10.890625 58.5 
Q 10.890625 67.625 15.140625 71.796875 
Q 19.390625 75.984375 28.609375 75.984375 
z
" id="DejaVuSans-102"/>
       <path d="M 34.28125 27.484375 
Q 23.390625 27.484375 19.1875 25 
Q 14.984375 22.515625 14.984375 16.5 
Q 14.984375 11.71875 18.140625 8.90625 
Q 21.296875 6.109375 26.703125 6.109375 
Q 34.1875 6.109375 38.703125 11.40625 
Q 43.21875 16.703125 43.21875 25.484375 
L 43.21875 27.484375 
z
M 52.203125 31.203125 
L 52.203125 0 
L 43.21875 0 
L 43.21875 8.296875 
Q 40.140625 3.328125 35.546875 0.953125 
Q 30.953125 -1.421875 24.3125 -1.421875 
Q 15.921875 -1.421875 10.953125 3.296875 
Q 6 8.015625 6 15.921875 
Q 6 25.140625 12.171875 29.828125 
Q 18.359375 34.515625 30.609375 34.515625 
L 43.21875 34.515625 
L 43.21875 35.40625 
Q 43.21875 41.609375 39.140625 45 
Q 35.0625 48.390625 27.6875 48.390625 
Q 23 48.390625 18.546875 47.265625 
Q 14.109375 46.140625 10.015625 43.890625 
L 10.015625 52.203125 
Q 14.9375 54.109375 19.578125 55.046875 
Q 24.21875 56 28.609375 56 
Q 40.484375 56 46.34375 49.84375 
Q 52.203125 43.703125 52.203125 31.203125 
z
" id="DejaVuSans-97"/>
       <path d="M 18.3125 70.21875 
L 18.3125 54.6875 
L 36.8125 54.6875 
L 36.8125 47.703125 
L 18.3125 47.703125 
L 18.3125 18.015625 
Q 18.3125 11.328125 20.140625 9.421875 
Q 21.96875 7.515625 27.59375 7.515625 
L 36.8125 7.515625 
L 36.8125 0 
L 27.59375 0 
Q 17.1875 0 13.234375 3.875 
Q 9.28125 7.765625 9.28125 18.015625 
L 9.28125 47.703125 
L 2.6875 47.703125 
L 2.6875 54.6875 
L 9.28125 54.6875 
L 9.28125 70.21875 
z
" id="DejaVuSans-116"/>
       <path d="M 45.40625 46.390625 
L 45.40625 75.984375 
L 54.390625 75.984375 
L 54.390625 0 
L 45.40625 0 
L 45.40625 8.203125 
Q 42.578125 3.328125 38.25 0.953125 
Q 33.9375 -1.421875 27.875 -1.421875 
Q 17.96875 -1.421875 11.734375 6.484375 
Q 5.515625 14.40625 5.515625 27.296875 
Q 5.515625 40.1875 11.734375 48.09375 
Q 17.96875 56 27.875 56 
Q 33.9375 56 38.25 53.625 
Q 42.578125 51.265625 45.40625 46.390625 
z
M 14.796875 27.296875 
Q 14.796875 17.390625 18.875 11.75 
Q 22.953125 6.109375 30.078125 6.109375 
Q 37.203125 6.109375 41.296875 11.75 
Q 45.40625 17.390625 45.40625 27.296875 
Q 45.40625 37.203125 41.296875 42.84375 
Q 37.203125 48.484375 30.078125 48.484375 
Q 22.953125 48.484375 18.875 42.84375 
Q 14.796875 37.203125 14.796875 27.296875 
z
" id="DejaVuSans-100"/>
       <path d="M 9.078125 75.984375 
L 18.109375 75.984375 
L 18.109375 31.109375 
L 44.921875 54.6875 
L 56.390625 54.6875 
L 27.390625 29.109375 
L 57.625 0 
L 45.90625 0 
L 18.109375 26.703125 
L 18.109375 0 
L 9.078125 0 
z
" id="DejaVuSans-107"/>
       <path d="M 44.28125 53.078125 
L 44.28125 44.578125 
Q 40.484375 46.53125 36.375 47.5 
Q 32.28125 48.484375 27.875 48.484375 
Q 21.1875 48.484375 17.84375 46.4375 
Q 14.5 44.390625 14.5 40.28125 
Q 14.5 37.15625 16.890625 35.375 
Q 19.28125 33.59375 26.515625 31.984375 
L 29.59375 31.296875 
Q 39.15625 29.25 43.1875 25.515625 
Q 47.21875 21.78125 47.21875 15.09375 
Q 47.21875 7.46875 41.1875 3.015625 
Q 35.15625 -1.421875 24.609375 -1.421875 
Q 20.21875 -1.421875 15.453125 -0.5625 
Q 10.6875 0.296875 5.421875 2 
L 5.421875 11.28125 
Q 10.40625 8.6875 15.234375 7.390625 
Q 20.0625 6.109375 24.8125 6.109375 
Q 31.15625 6.109375 34.5625 8.28125 
Q 37.984375 10.453125 37.984375 14.40625 
Q 37.984375 18.0625 35.515625 20.015625 
Q 33.0625 21.96875 24.703125 23.78125 
L 21.578125 24.515625 
Q 13.234375 26.265625 9.515625 29.90625 
Q 5.8125 33.546875 5.8125 39.890625 
Q 5.8125 47.609375 11.28125 51.796875 
Q 16.75 56 26.8125 56 
Q 31.78125 56 36.171875 55.265625 
Q 40.578125 54.546875 44.28125 53.078125 
z
" id="DejaVuSans-115"/>
      </defs>
      <use xlink:href="#DejaVuSans-110"/>
      <use x="63.378906" xlink:href="#DejaVuSans-117"/>
      <use x="126.757812" xlink:href="#DejaVuSans-109"/>
      <use x="224.169922" xlink:href="#DejaVuSans-98"/>
      <use x="287.646484" xlink:href="#DejaVuSans-101"/>
      <use x="349.169922" xlink:href="#DejaVuSans-114"/>
      <use x="390.283203" xlink:href="#DejaVuSans-32"/>
      <use x="422.070312" xlink:href="#DejaVuSans-111"/>
      <use x="483.251953" xlink:href="#DejaVuSans-102"/>
      <use x="518.457031" xlink:href="#DejaVuSans-32"/>
      <use x="550.244141" xlink:href="#DejaVuSans-97"/>
      <use x="611.523438" xlink:href="#DejaVuSans-110"/>
      <use x="674.902344" xlink:href="#DejaVuSans-110"/>
      <use x="738.28125" xlink:href="#DejaVuSans-111"/>
      <use x="799.462891" xlink:href="#DejaVuSans-116"/>
      <use x="838.671875" xlink:href="#DejaVuSans-97"/>
      <use x="899.951172" xlink:href="#DejaVuSans-116"/>
      <use x="939.160156" xlink:href="#DejaVuSans-101"/>
      <use x="1000.683594" xlink:href="#DejaVuSans-100"/>
      <use x="1064.160156" xlink:href="#DejaVuSans-32"/>
      <use x="1095.947266" xlink:href="#DejaVuSans-116"/>
      <use x="1135.15625" xlink:href="#DejaVuSans-111"/>
      <use x="1196.337891" xlink:href="#DejaVuSans-107"/>
      <use x="1250.623047" xlink:href="#DejaVuSans-101"/>
      <use x="1312.146484" xlink:href="#DejaVuSans-110"/>
      <use x="1375.525391" xlink:href="#DejaVuSans-115"/>
     </g>
    </g>
   </g>
   <g id="matplotlib.axis_2">
    <g id="ytick_1">
     <g id="line2d_9">
      <path clip-path="url(#p3cc2f3ae2c)" d="M 58.0075 470.358682 
L 727.6075 470.358682 
" style="fill:none;stroke:#cccccc;stroke-linecap:square;stroke-opacity:0.7;stroke-width:0.8;"/>
     </g>
     <g id="line2d_10">
      <defs>
       <path d="M 0 0 
L -3 0 
" id="mce400b079a" style="stroke:#000000;stroke-width:1.5;"/>
      </defs>
      <g>
       <use style="stroke:#000000;stroke-width:1.5;" x="58.0075" xlink:href="#mce400b079a" y="470.358682"/>
      </g>
     </g>
     <g id="text_6">
      <!-- 0.3 -->
      <g transform="translate(27.652812 476.05751)scale(0.15 -0.15)">
       <defs>
        <path d="M 10.6875 12.40625 
L 21 12.40625 
L 21 0 
L 10.6875 0 
z
" id="DejaVuSans-46"/>
        <path d="M 40.578125 39.3125 
Q 47.65625 37.796875 51.625 33 
Q 55.609375 28.21875 55.609375 21.1875 
Q 55.609375 10.40625 48.1875 4.484375 
Q 40.765625 -1.421875 27.09375 -1.421875 
Q 22.515625 -1.421875 17.65625 -0.515625 
Q 12.796875 0.390625 7.625 2.203125 
L 7.625 11.71875 
Q 11.71875 9.328125 16.59375 8.109375 
Q 21.484375 6.890625 26.8125 6.890625 
Q 36.078125 6.890625 40.9375 10.546875 
Q 45.796875 14.203125 45.796875 21.1875 
Q 45.796875 27.640625 41.28125 31.265625 
Q 36.765625 34.90625 28.71875 34.90625 
L 20.21875 34.90625 
L 20.21875 43.015625 
L 29.109375 43.015625 
Q 36.375 43.015625 40.234375 45.921875 
Q 44.09375 48.828125 44.09375 54.296875 
Q 44.09375 59.90625 40.109375 62.90625 
Q 36.140625 65.921875 28.71875 65.921875 
Q 24.65625 65.921875 20.015625 65.03125 
Q 15.375 64.15625 9.8125 62.3125 
L 9.8125 71.09375 
Q 15.4375 72.65625 20.34375 73.4375 
Q 25.25 74.21875 29.59375 74.21875 
Q 40.828125 74.21875 47.359375 69.109375 
Q 53.90625 64.015625 53.90625 55.328125 
Q 53.90625 49.265625 50.4375 45.09375 
Q 46.96875 40.921875 40.578125 39.3125 
z
" id="DejaVuSans-51"/>
       </defs>
       <use xlink:href="#DejaVuSans-48"/>
       <use x="63.623047" xlink:href="#DejaVuSans-46"/>
       <use x="95.410156" xlink:href="#DejaVuSans-51"/>
      </g>
     </g>
    </g>
    <g id="ytick_2">
     <g id="line2d_11">
      <path clip-path="url(#p3cc2f3ae2c)" d="M 58.0075 388.334211 
L 727.6075 388.334211 
" style="fill:none;stroke:#cccccc;stroke-linecap:square;stroke-opacity:0.7;stroke-width:0.8;"/>
     </g>
     <g id="line2d_12">
      <g>
       <use style="stroke:#000000;stroke-width:1.5;" x="58.0075" xlink:href="#mce400b079a" y="388.334211"/>
      </g>
     </g>
     <g id="text_7">
      <!-- 0.4 -->
      <g transform="translate(27.652812 394.033039)scale(0.15 -0.15)">
       <use xlink:href="#DejaVuSans-48"/>
       <use x="63.623047" xlink:href="#DejaVuSans-46"/>
       <use x="95.410156" xlink:href="#DejaVuSans-52"/>
      </g>
     </g>
    </g>
    <g id="ytick_3">
     <g id="line2d_13">
      <path clip-path="url(#p3cc2f3ae2c)" d="M 58.0075 306.30974 
L 727.6075 306.30974 
" style="fill:none;stroke:#cccccc;stroke-linecap:square;stroke-opacity:0.7;stroke-width:0.8;"/>
     </g>
     <g id="line2d_14">
      <g>
       <use style="stroke:#000000;stroke-width:1.5;" x="58.0075" xlink:href="#mce400b079a" y="306.30974"/>
      </g>
     </g>
     <g id="text_8">
      <!-- 0.5 -->
      <g transform="translate(27.652812 312.008568)scale(0.15 -0.15)">
       <defs>
        <path d="M 10.796875 72.90625 
L 49.515625 72.90625 
L 49.515625 64.59375 
L 19.828125 64.59375 
L 19.828125 46.734375 
Q 21.96875 47.46875 24.109375 47.828125 
Q 26.265625 48.1875 28.421875 48.1875 
Q 40.625 48.1875 47.75 41.5 
Q 54.890625 34.8125 54.890625 23.390625 
Q 54.890625 11.625 47.5625 5.09375 
Q 40.234375 -1.421875 26.90625 -1.421875 
Q 22.3125 -1.421875 17.546875 -0.640625 
Q 12.796875 0.140625 7.71875 1.703125 
L 7.71875 11.625 
Q 12.109375 9.234375 16.796875 8.0625 
Q 21.484375 6.890625 26.703125 6.890625 
Q 35.15625 6.890625 40.078125 11.328125 
Q 45.015625 15.765625 45.015625 23.390625 
Q 45.015625 31 40.078125 35.4375 
Q 35.15625 39.890625 26.703125 39.890625 
Q 22.75 39.890625 18.8125 39.015625 
Q 14.890625 38.140625 10.796875 36.28125 
z
" id="DejaVuSans-53"/>
       </defs>
       <use xlink:href="#DejaVuSans-48"/>
       <use x="63.623047" xlink:href="#DejaVuSans-46"/>
       <use x="95.410156" xlink:href="#DejaVuSans-53"/>
      </g>
     </g>
    </g>
    <g id="ytick_4">
     <g id="line2d_15">
      <path clip-path="url(#p3cc2f3ae2c)" d="M 58.0075 224.285269 
L 727.6075 224.285269 
" style="fill:none;stroke:#cccccc;stroke-linecap:square;stroke-opacity:0.7;stroke-width:0.8;"/>
     </g>
     <g id="line2d_16">
      <g>
       <use style="stroke:#000000;stroke-width:1.5;" x="58.0075" xlink:href="#mce400b079a" y="224.285269"/>
      </g>
     </g>
     <g id="text_9">
      <!-- 0.6 -->
      <g transform="translate(27.652812 229.984097)scale(0.15 -0.15)">
       <use xlink:href="#DejaVuSans-48"/>
       <use x="63.623047" xlink:href="#DejaVuSans-46"/>
       <use x="95.410156" xlink:href="#DejaVuSans-54"/>
      </g>
     </g>
    </g>
    <g id="ytick_5">
     <g id="line2d_17">
      <path clip-path="url(#p3cc2f3ae2c)" d="M 58.0075 142.260798 
L 727.6075 142.260798 
" style="fill:none;stroke:#cccccc;stroke-linecap:square;stroke-opacity:0.7;stroke-width:0.8;"/>
     </g>
     <g id="line2d_18">
      <g>
       <use style="stroke:#000000;stroke-width:1.5;" x="58.0075" xlink:href="#mce400b079a" y="142.260798"/>
      </g>
     </g>
     <g id="text_10">
      <!-- 0.7 -->
      <g transform="translate(27.652812 147.959626)scale(0.15 -0.15)">
       <defs>
        <path d="M 8.203125 72.90625 
L 55.078125 72.90625 
L 55.078125 68.703125 
L 28.609375 0 
L 18.3125 0 
L 43.21875 64.59375 
L 8.203125 64.59375 
z
" id="DejaVuSans-55"/>
       </defs>
       <use xlink:href="#DejaVuSans-48"/>
       <use x="63.623047" xlink:href="#DejaVuSans-46"/>
       <use x="95.410156" xlink:href="#DejaVuSans-55"/>
      </g>
     </g>
    </g>
    <g id="ytick_6">
     <g id="line2d_19">
      <path clip-path="url(#p3cc2f3ae2c)" d="M 58.0075 60.236327 
L 727.6075 60.236327 
" style="fill:none;stroke:#cccccc;stroke-linecap:square;stroke-opacity:0.7;stroke-width:0.8;"/>
     </g>
     <g id="line2d_20">
      <g>
       <use style="stroke:#000000;stroke-width:1.5;" x="58.0075" xlink:href="#mce400b079a" y="60.236327"/>
      </g>
     </g>
     <g id="text_11">
      <!-- 0.8 -->
      <g transform="translate(27.652812 65.935156)scale(0.15 -0.15)">
       <defs>
        <path d="M 31.78125 34.625 
Q 24.75 34.625 20.71875 30.859375 
Q 16.703125 27.09375 16.703125 20.515625 
Q 16.703125 13.921875 20.71875 10.15625 
Q 24.75 6.390625 31.78125 6.390625 
Q 38.8125 6.390625 42.859375 10.171875 
Q 46.921875 13.96875 46.921875 20.515625 
Q 46.921875 27.09375 42.890625 30.859375 
Q 38.875 34.625 31.78125 34.625 
z
M 21.921875 38.8125 
Q 15.578125 40.375 12.03125 44.71875 
Q 8.5 49.078125 8.5 55.328125 
Q 8.5 64.0625 14.71875 69.140625 
Q 20.953125 74.21875 31.78125 74.21875 
Q 42.671875 74.21875 48.875 69.140625 
Q 55.078125 64.0625 55.078125 55.328125 
Q 55.078125 49.078125 51.53125 44.71875 
Q 48 40.375 41.703125 38.8125 
Q 48.828125 37.15625 52.796875 32.3125 
Q 56.78125 27.484375 56.78125 20.515625 
Q 56.78125 9.90625 50.3125 4.234375 
Q 43.84375 -1.421875 31.78125 -1.421875 
Q 19.734375 -1.421875 13.25 4.234375 
Q 6.78125 9.90625 6.78125 20.515625 
Q 6.78125 27.484375 10.78125 32.3125 
Q 14.796875 37.15625 21.921875 38.8125 
z
M 18.3125 54.390625 
Q 18.3125 48.734375 21.84375 45.5625 
Q 25.390625 42.390625 31.78125 42.390625 
Q 38.140625 42.390625 41.71875 45.5625 
Q 45.3125 48.734375 45.3125 54.390625 
Q 45.3125 60.0625 41.71875 63.234375 
Q 38.140625 66.40625 31.78125 66.40625 
Q 25.390625 66.40625 21.84375 63.234375 
Q 18.3125 60.0625 18.3125 54.390625 
z
" id="DejaVuSans-56"/>
       </defs>
       <use xlink:href="#DejaVuSans-48"/>
       <use x="63.623047" xlink:href="#DejaVuSans-46"/>
       <use x="95.410156" xlink:href="#DejaVuSans-56"/>
      </g>
     </g>
    </g>
    <g id="text_12">
     <!-- f1-score -->
     <g transform="translate(20.117344 290.982812)rotate(-90)scale(0.17 -0.17)">
      <defs>
       <path d="M 4.890625 31.390625 
L 31.203125 31.390625 
L 31.203125 23.390625 
L 4.890625 23.390625 
z
" id="DejaVuSans-45"/>
       <path d="M 48.78125 52.59375 
L 48.78125 44.1875 
Q 44.96875 46.296875 41.140625 47.34375 
Q 37.3125 48.390625 33.40625 48.390625 
Q 24.65625 48.390625 19.8125 42.84375 
Q 14.984375 37.3125 14.984375 27.296875 
Q 14.984375 17.28125 19.8125 11.734375 
Q 24.65625 6.203125 33.40625 6.203125 
Q 37.3125 6.203125 41.140625 7.25 
Q 44.96875 8.296875 48.78125 10.40625 
L 48.78125 2.09375 
Q 45.015625 0.34375 40.984375 -0.53125 
Q 36.96875 -1.421875 32.421875 -1.421875 
Q 20.0625 -1.421875 12.78125 6.34375 
Q 5.515625 14.109375 5.515625 27.296875 
Q 5.515625 40.671875 12.859375 48.328125 
Q 20.21875 56 33.015625 56 
Q 37.15625 56 41.109375 55.140625 
Q 45.0625 54.296875 48.78125 52.59375 
z
" id="DejaVuSans-99"/>
      </defs>
      <use xlink:href="#DejaVuSans-102"/>
      <use x="35.205078" xlink:href="#DejaVuSans-49"/>
      <use x="98.828125" xlink:href="#DejaVuSans-45"/>
      <use x="134.912109" xlink:href="#DejaVuSans-115"/>
      <use x="187.011719" xlink:href="#DejaVuSans-99"/>
      <use x="241.992188" xlink:href="#DejaVuSans-111"/>
      <use x="303.173828" xlink:href="#DejaVuSans-114"/>
      <use x="342.037109" xlink:href="#DejaVuSans-101"/>
     </g>
    </g>
   </g>
   <g id="line2d_21">
    <path clip-path="url(#p3cc2f3ae2c)" d="M 88.443864 483.48 
L 92.22797 463.90171 
L 105.336793 430.688891 
L 125.46106 404.010254 
L 164.165415 355.604368 
L 220.947632 340.633181 
L 287.64702 261.48915 
L 359.383775 217.672142 
L 438.383003 121.404625 
L 517.716484 61.145052 
L 599.222599 31.739587 
L 673.13293 31.603411 
L 697.171136 34.043649 
" style="fill:none;stroke:#66c2a5;stroke-linecap:square;stroke-width:1.2;"/>
    <defs>
     <path d="M -0 4.949747 
L 4.949747 0 
L 0 -4.949747 
L -4.949747 -0 
z
" id="m24b724e863" style="stroke:#66c2a5;stroke-linejoin:miter;"/>
    </defs>
    <g clip-path="url(#p3cc2f3ae2c)">
     <use style="fill:#66c2a5;stroke:#66c2a5;stroke-linejoin:miter;" x="88.443864" xlink:href="#m24b724e863" y="483.48"/>
     <use style="fill:#66c2a5;stroke:#66c2a5;stroke-linejoin:miter;" x="92.22797" xlink:href="#m24b724e863" y="463.90171"/>
     <use style="fill:#66c2a5;stroke:#66c2a5;stroke-linejoin:miter;" x="105.336793" xlink:href="#m24b724e863" y="430.688891"/>
     <use style="fill:#66c2a5;stroke:#66c2a5;stroke-linejoin:miter;" x="125.46106" xlink:href="#m24b724e863" y="404.010254"/>
     <use style="fill:#66c2a5;stroke:#66c2a5;stroke-linejoin:miter;" x="164.165415" xlink:href="#m24b724e863" y="355.604368"/>
     <use style="fill:#66c2a5;stroke:#66c2a5;stroke-linejoin:miter;" x="220.947632" xlink:href="#m24b724e863" y="340.633181"/>
     <use style="fill:#66c2a5;stroke:#66c2a5;stroke-linejoin:miter;" x="287.64702" xlink:href="#m24b724e863" y="261.48915"/>
     <use style="fill:#66c2a5;stroke:#66c2a5;stroke-linejoin:miter;" x="359.383775" xlink:href="#m24b724e863" y="217.672142"/>
     <use style="fill:#66c2a5;stroke:#66c2a5;stroke-linejoin:miter;" x="438.383003" xlink:href="#m24b724e863" y="121.404625"/>
     <use style="fill:#66c2a5;stroke:#66c2a5;stroke-linejoin:miter;" x="517.716484" xlink:href="#m24b724e863" y="61.145052"/>
     <use style="fill:#66c2a5;stroke:#66c2a5;stroke-linejoin:miter;" x="599.222599" xlink:href="#m24b724e863" y="31.739587"/>
     <use style="fill:#66c2a5;stroke:#66c2a5;stroke-linejoin:miter;" x="673.13293" xlink:href="#m24b724e863" y="31.603411"/>
     <use style="fill:#66c2a5;stroke:#66c2a5;stroke-linejoin:miter;" x="697.171136" xlink:href="#m24b724e863" y="34.043649"/>
    </g>
   </g>
   <g id="line2d_22">
    <path clip-path="url(#p3cc2f3ae2c)" d="M 88.443864 483.48 
L 91.395724 465.866826 
L 102.827699 448.732487 
L 122.99365 409.942969 
L 162.750457 366.029664 
L 216.320976 351.488036 
L 282.051839 264.328551 
L 357.522293 213.983472 
L 435.278423 122.573837 
L 517.84958 54.927215 
L 599.532527 34.325097 
L 673.270145 31.443802 
L 697.171136 34.043649 
" style="fill:none;stroke:#fc8d62;stroke-linecap:square;stroke-width:1.2;"/>
    <defs>
     <path d="M -0 4.949747 
L 2.969848 0 
L 0 -4.949747 
L -2.969848 -0 
z
" id="mf217aaf7f3" style="stroke:#fc8d62;stroke-linejoin:miter;"/>
    </defs>
    <g clip-path="url(#p3cc2f3ae2c)">
     <use style="fill:#fc8d62;stroke:#fc8d62;stroke-linejoin:miter;" x="88.443864" xlink:href="#mf217aaf7f3" y="483.48"/>
     <use style="fill:#fc8d62;stroke:#fc8d62;stroke-linejoin:miter;" x="91.395724" xlink:href="#mf217aaf7f3" y="465.866826"/>
     <use style="fill:#fc8d62;stroke:#fc8d62;stroke-linejoin:miter;" x="102.827699" xlink:href="#mf217aaf7f3" y="448.732487"/>
     <use style="fill:#fc8d62;stroke:#fc8d62;stroke-linejoin:miter;" x="122.99365" xlink:href="#mf217aaf7f3" y="409.942969"/>
     <use style="fill:#fc8d62;stroke:#fc8d62;stroke-linejoin:miter;" x="162.750457" xlink:href="#mf217aaf7f3" y="366.029664"/>
     <use style="fill:#fc8d62;stroke:#fc8d62;stroke-linejoin:miter;" x="216.320976" xlink:href="#mf217aaf7f3" y="351.488036"/>
     <use style="fill:#fc8d62;stroke:#fc8d62;stroke-linejoin:miter;" x="282.051839" xlink:href="#mf217aaf7f3" y="264.328551"/>
     <use style="fill:#fc8d62;stroke:#fc8d62;stroke-linejoin:miter;" x="357.522293" xlink:href="#mf217aaf7f3" y="213.983472"/>
     <use style="fill:#fc8d62;stroke:#fc8d62;stroke-linejoin:miter;" x="435.278423" xlink:href="#mf217aaf7f3" y="122.573837"/>
     <use style="fill:#fc8d62;stroke:#fc8d62;stroke-linejoin:miter;" x="517.84958" xlink:href="#mf217aaf7f3" y="54.927215"/>
     <use style="fill:#fc8d62;stroke:#fc8d62;stroke-linejoin:miter;" x="599.532527" xlink:href="#mf217aaf7f3" y="34.325097"/>
     <use style="fill:#fc8d62;stroke:#fc8d62;stroke-linejoin:miter;" x="673.270145" xlink:href="#mf217aaf7f3" y="31.443802"/>
     <use style="fill:#fc8d62;stroke:#fc8d62;stroke-linejoin:miter;" x="697.171136" xlink:href="#mf217aaf7f3" y="34.043649"/>
    </g>
   </g>
   <g id="line2d_23">
    <path clip-path="url(#p3cc2f3ae2c)" d="M 88.443864 483.48 
L 91.368768 463.878682 
L 102.172733 448.718912 
L 125.030963 411.0567 
L 163.215133 362.733163 
L 221.60015 343.240352 
L 282.527784 278.828187 
L 358.086344 231.90764 
L 436.557973 117.635793 
L 518.056441 64.820168 
L 599.677384 30.025818 
L 673.035798 31.735992 
L 697.171136 34.043649 
" style="fill:none;stroke:#8da0cb;stroke-linecap:square;stroke-width:1.2;"/>
    <defs>
     <path d="M -1.166667 3.5 
L 1.166667 3.5 
L 1.166667 1.166667 
L 3.5 1.166667 
L 3.5 -1.166667 
L 1.166667 -1.166667 
L 1.166667 -3.5 
L -1.166667 -3.5 
L -1.166667 -1.166667 
L -3.5 -1.166667 
L -3.5 1.166667 
L -1.166667 1.166667 
z
" id="m704afe572b" style="stroke:#8da0cb;stroke-linejoin:miter;"/>
    </defs>
    <g clip-path="url(#p3cc2f3ae2c)">
     <use style="fill:#8da0cb;stroke:#8da0cb;stroke-linejoin:miter;" x="88.443864" xlink:href="#m704afe572b" y="483.48"/>
     <use style="fill:#8da0cb;stroke:#8da0cb;stroke-linejoin:miter;" x="91.368768" xlink:href="#m704afe572b" y="463.878682"/>
     <use style="fill:#8da0cb;stroke:#8da0cb;stroke-linejoin:miter;" x="102.172733" xlink:href="#m704afe572b" y="448.718912"/>
     <use style="fill:#8da0cb;stroke:#8da0cb;stroke-linejoin:miter;" x="125.030963" xlink:href="#m704afe572b" y="411.0567"/>
     <use style="fill:#8da0cb;stroke:#8da0cb;stroke-linejoin:miter;" x="163.215133" xlink:href="#m704afe572b" y="362.733163"/>
     <use style="fill:#8da0cb;stroke:#8da0cb;stroke-linejoin:miter;" x="221.60015" xlink:href="#m704afe572b" y="343.240352"/>
     <use style="fill:#8da0cb;stroke:#8da0cb;stroke-linejoin:miter;" x="282.527784" xlink:href="#m704afe572b" y="278.828187"/>
     <use style="fill:#8da0cb;stroke:#8da0cb;stroke-linejoin:miter;" x="358.086344" xlink:href="#m704afe572b" y="231.90764"/>
     <use style="fill:#8da0cb;stroke:#8da0cb;stroke-linejoin:miter;" x="436.557973" xlink:href="#m704afe572b" y="117.635793"/>
     <use style="fill:#8da0cb;stroke:#8da0cb;stroke-linejoin:miter;" x="518.056441" xlink:href="#m704afe572b" y="64.820168"/>
     <use style="fill:#8da0cb;stroke:#8da0cb;stroke-linejoin:miter;" x="599.677384" xlink:href="#m704afe572b" y="30.025818"/>
     <use style="fill:#8da0cb;stroke:#8da0cb;stroke-linejoin:miter;" x="673.035798" xlink:href="#m704afe572b" y="31.735992"/>
     <use style="fill:#8da0cb;stroke:#8da0cb;stroke-linejoin:miter;" x="697.171136" xlink:href="#m704afe572b" y="34.043649"/>
    </g>
   </g>
   <g id="line2d_24">
    <path clip-path="url(#p3cc2f3ae2c)" d="M 88.443864 483.48 
L 91.799245 465.853049 
L 103.165716 458.625642 
L 120.916185 409.192862 
L 170.816455 354.01879 
L 219.941316 326.465882 
L 283.211488 264.71978 
L 353.943648 235.33755 
L 434.631218 124.8066 
L 515.647611 62.249074 
L 596.501341 35.407865 
L 672.774463 29.88 
L 697.171136 34.043649 
" style="fill:none;stroke:#e78ac3;stroke-linecap:square;stroke-width:1.2;"/>
    <defs>
     <path d="M -1.75 3.5 
L 0 1.75 
L 1.75 3.5 
L 3.5 1.75 
L 1.75 0 
L 3.5 -1.75 
L 1.75 -3.5 
L 0 -1.75 
L -1.75 -3.5 
L -3.5 -1.75 
L -1.75 0 
L -3.5 1.75 
z
" id="mc09e9b6cf3" style="stroke:#e78ac3;stroke-linejoin:miter;"/>
    </defs>
    <g clip-path="url(#p3cc2f3ae2c)">
     <use style="fill:#e78ac3;stroke:#e78ac3;stroke-linejoin:miter;" x="88.443864" xlink:href="#mc09e9b6cf3" y="483.48"/>
     <use style="fill:#e78ac3;stroke:#e78ac3;stroke-linejoin:miter;" x="91.799245" xlink:href="#mc09e9b6cf3" y="465.853049"/>
     <use style="fill:#e78ac3;stroke:#e78ac3;stroke-linejoin:miter;" x="103.165716" xlink:href="#mc09e9b6cf3" y="458.625642"/>
     <use style="fill:#e78ac3;stroke:#e78ac3;stroke-linejoin:miter;" x="120.916185" xlink:href="#mc09e9b6cf3" y="409.192862"/>
     <use style="fill:#e78ac3;stroke:#e78ac3;stroke-linejoin:miter;" x="170.816455" xlink:href="#mc09e9b6cf3" y="354.01879"/>
     <use style="fill:#e78ac3;stroke:#e78ac3;stroke-linejoin:miter;" x="219.941316" xlink:href="#mc09e9b6cf3" y="326.465882"/>
     <use style="fill:#e78ac3;stroke:#e78ac3;stroke-linejoin:miter;" x="283.211488" xlink:href="#mc09e9b6cf3" y="264.71978"/>
     <use style="fill:#e78ac3;stroke:#e78ac3;stroke-linejoin:miter;" x="353.943648" xlink:href="#mc09e9b6cf3" y="235.33755"/>
     <use style="fill:#e78ac3;stroke:#e78ac3;stroke-linejoin:miter;" x="434.631218" xlink:href="#mc09e9b6cf3" y="124.8066"/>
     <use style="fill:#e78ac3;stroke:#e78ac3;stroke-linejoin:miter;" x="515.647611" xlink:href="#mc09e9b6cf3" y="62.249074"/>
     <use style="fill:#e78ac3;stroke:#e78ac3;stroke-linejoin:miter;" x="596.501341" xlink:href="#mc09e9b6cf3" y="35.407865"/>
     <use style="fill:#e78ac3;stroke:#e78ac3;stroke-linejoin:miter;" x="672.774463" xlink:href="#mc09e9b6cf3" y="29.88"/>
     <use style="fill:#e78ac3;stroke:#e78ac3;stroke-linejoin:miter;" x="697.171136" xlink:href="#mc09e9b6cf3" y="34.043649"/>
    </g>
   </g>
   <g id="patch_3">
    <path d="M 58.0075 506.16 
L 58.0075 7.2 
" style="fill:none;stroke:#000000;stroke-linecap:square;stroke-linejoin:miter;stroke-width:0.8;"/>
   </g>
   <g id="patch_4">
    <path d="M 727.6075 506.16 
L 727.6075 7.2 
" style="fill:none;stroke:#000000;stroke-linecap:square;stroke-linejoin:miter;stroke-width:0.8;"/>
   </g>
   <g id="patch_5">
    <path d="M 58.0075 506.16 
L 727.6075 506.16 
" style="fill:none;stroke:#000000;stroke-linecap:square;stroke-linejoin:miter;stroke-width:0.8;"/>
   </g>
   <g id="patch_6">
    <path d="M 58.0075 7.2 
L 727.6075 7.2 
" style="fill:none;stroke:#000000;stroke-linecap:square;stroke-linejoin:miter;stroke-width:0.8;"/>
   </g>
  </g>
  <g id="legend_1">
   <g id="patch_7">
    <path d="M 706.010313 332.95625 
L 799.6075 332.95625 
Q 803.2075 332.95625 803.2075 329.35625 
L 803.2075 225.47375 
Q 803.2075 221.87375 799.6075 221.87375 
L 706.010313 221.87375 
Q 702.410313 221.87375 702.410313 225.47375 
L 702.410313 329.35625 
Q 702.410313 332.95625 706.010313 332.95625 
z
" style="fill:#ffffff;opacity:0.8;stroke:#cccccc;stroke-linejoin:miter;stroke-width:0.8;"/>
   </g>
   <g id="line2d_25">
    <path d="M 709.610313 236.450937 
L 745.610313 236.450937 
" style="fill:none;stroke:#66c2a5;stroke-linecap:square;stroke-width:1.2;"/>
   </g>
   <g id="line2d_26">
    <g>
     <use style="fill:#66c2a5;stroke:#66c2a5;stroke-linejoin:miter;" x="727.610313" xlink:href="#m24b724e863" y="236.450937"/>
    </g>
   </g>
   <g id="text_13">
    <!-- nap -->
    <g transform="translate(760.010313 242.750937)scale(0.18 -0.18)">
     <defs>
      <path d="M 18.109375 8.203125 
L 18.109375 -20.796875 
L 9.078125 -20.796875 
L 9.078125 54.6875 
L 18.109375 54.6875 
L 18.109375 46.390625 
Q 20.953125 51.265625 25.265625 53.625 
Q 29.59375 56 35.59375 56 
Q 45.5625 56 51.78125 48.09375 
Q 58.015625 40.1875 58.015625 27.296875 
Q 58.015625 14.40625 51.78125 6.484375 
Q 45.5625 -1.421875 35.59375 -1.421875 
Q 29.59375 -1.421875 25.265625 0.953125 
Q 20.953125 3.328125 18.109375 8.203125 
z
M 48.6875 27.296875 
Q 48.6875 37.203125 44.609375 42.84375 
Q 40.53125 48.484375 33.40625 48.484375 
Q 26.265625 48.484375 22.1875 42.84375 
Q 18.109375 37.203125 18.109375 27.296875 
Q 18.109375 17.390625 22.1875 11.75 
Q 26.265625 6.109375 33.40625 6.109375 
Q 40.53125 6.109375 44.609375 11.75 
Q 48.6875 17.390625 48.6875 27.296875 
z
" id="DejaVuSans-112"/>
     </defs>
     <use xlink:href="#DejaVuSans-110"/>
     <use x="63.378906" xlink:href="#DejaVuSans-97"/>
     <use x="124.658203" xlink:href="#DejaVuSans-112"/>
    </g>
   </g>
   <g id="line2d_27">
    <path d="M 709.610313 262.871562 
L 745.610313 262.871562 
" style="fill:none;stroke:#fc8d62;stroke-linecap:square;stroke-width:1.2;"/>
   </g>
   <g id="line2d_28">
    <g>
     <use style="fill:#fc8d62;stroke:#fc8d62;stroke-linejoin:miter;" x="727.610313" xlink:href="#mf217aaf7f3" y="262.871562"/>
    </g>
   </g>
   <g id="text_14">
    <!-- ntp -->
    <g transform="translate(760.010313 269.171562)scale(0.18 -0.18)">
     <use xlink:href="#DejaVuSans-110"/>
     <use x="63.378906" xlink:href="#DejaVuSans-116"/>
     <use x="102.587891" xlink:href="#DejaVuSans-112"/>
    </g>
   </g>
   <g id="line2d_29">
    <path d="M 709.610313 289.292187 
L 745.610313 289.292187 
" style="fill:none;stroke:#8da0cb;stroke-linecap:square;stroke-width:1.2;"/>
   </g>
   <g id="line2d_30">
    <g>
     <use style="fill:#8da0cb;stroke:#8da0cb;stroke-linejoin:miter;" x="727.610313" xlink:href="#m704afe572b" y="289.292187"/>
    </g>
   </g>
   <g id="text_15">
    <!-- ntm -->
    <g transform="translate(760.010313 295.592187)scale(0.18 -0.18)">
     <use xlink:href="#DejaVuSans-110"/>
     <use x="63.378906" xlink:href="#DejaVuSans-116"/>
     <use x="102.587891" xlink:href="#DejaVuSans-109"/>
    </g>
   </g>
   <g id="line2d_31">
    <path d="M 709.610313 315.712812 
L 745.610313 315.712812 
" style="fill:none;stroke:#e78ac3;stroke-linecap:square;stroke-width:1.2;"/>
   </g>
   <g id="line2d_32">
    <g>
     <use style="fill:#e78ac3;stroke:#e78ac3;stroke-linejoin:miter;" x="727.610313" xlink:href="#mc09e9b6cf3" y="315.712812"/>
    </g>
   </g>
   <g id="text_16">
    <!-- nte -->
    <g transform="translate(760.010313 322.012812)scale(0.18 -0.18)">
     <use xlink:href="#DejaVuSans-110"/>
     <use x="63.378906" xlink:href="#DejaVuSans-116"/>
     <use x="102.587891" xlink:href="#DejaVuSans-101"/>
    </g>
   </g>
  </g>
 </g>
 <defs>
  <clipPath id="p3cc2f3ae2c">
   <rect height="498.96" width="669.6" x="58.0075" y="7.2"/>
  </clipPath>
 </defs>
</svg>
